<?xml version="1.0" encoding="utf-8"?>
<!-- Generator: Adobe Illustrator 17.0.0, SVG Export Plug-In . SVG Version: 6.00 Build 0)  -->
<!DOCTYPE svg PUBLIC "-//W3C//DTD SVG 1.1//EN" "http://www.w3.org/Graphics/SVG/1.1/DTD/svg11.dtd">
<svg version="1.1" id="Layer_1" xmlns="http://www.w3.org/2000/svg" xmlns:xlink="http://www.w3.org/1999/xlink" x="0px" y="0px"
	 width="16px" height="16px" viewBox="0 0 16 16" enable-background="new 0 0 16 16" xml:space="preserve">
<g>
	<circle fill="#621DFD" cx="8" cy="8" r="8"/>
	<g>
		<g>
			<path fill="#FFFFFF" d="M3.93,8.224c-0.159,0-0.22-0.057-0.208-0.159C4,8.114,4.395,8.139,4.672,8.139h0.721L5.381,9.528H5.348
				L5.316,8.546c-0.261,0.676-0.77,1.023-1.369,1.023c-0.876,0-1.532-0.615-1.532-1.52c0-0.957,0.693-1.617,1.699-1.617
				c0.794,0,1.291,0.326,1.291,0.794c0,0.191-0.069,0.367-0.208,0.509C5.026,7.299,4.322,6.798,3.56,6.798
				c-0.652,0-1.014,0.391-1.014,0.929c0,0.68,0.705,1.267,1.646,1.267c0.656,0,1.035-0.31,1.149-0.807H4.908
				C4.582,8.187,4.142,8.224,3.93,8.224z"/>
			<path fill="#FFFFFF" d="M7.136,9.528V9.495c0.546-0.065,0.933-0.46,0.933-1.32v-0.35c0-0.868-0.395-1.255-0.933-1.32V6.472h1.915
				v0.033C8.513,6.57,8.118,6.957,8.118,7.825v0.35c0,0.86,0.387,1.255,0.933,1.32v0.033H7.136z"/>
			<path fill="#FFFFFF" d="M13.475,6.472l0.11,1.491l-0.029,0.012c-0.31-0.741-0.917-1.454-1.467-1.454v1.43
				c0,0.86,0.473,1.479,1.014,1.544v0.033h-2.078V9.495c0.542-0.065,1.014-0.684,1.014-1.544v-1.43
				c-0.558,0.008-1.157,0.717-1.467,1.454l-0.028-0.012l0.11-1.491H13.475z"/>
		</g>
		<ellipse fill="#FFFFFF" cx="9.574" cy="8.102" rx="0.268" ry="0.46"/>
		<ellipse fill="#FFFFFF" cx="6.601" cy="8.102" rx="0.268" ry="0.46"/>
	</g>
</g>
</svg>
