<?xml version="1.0" encoding="utf-8"?>
<!-- Generator: Adobe Illustrator 17.0.0, SVG Export Plug-In . SVG Version: 6.00 Build 0)  -->
<!DOCTYPE svg PUBLIC "-//W3C//DTD SVG 1.1//EN" "http://www.w3.org/Graphics/SVG/1.1/DTD/svg11.dtd">
<svg version="1.1" id="Layer_1" xmlns="http://www.w3.org/2000/svg" xmlns:xlink="http://www.w3.org/1999/xlink" x="0px" y="0px"
	 width="1000px" height="1000px" viewBox="0 0 1000 1000" enable-background="new 0 0 1000 1000" xml:space="preserve">
<g>
	<g>
		<path fill="#00FC96" d="M967.185,746.261c0,122.155-99.024,221.179-221.179,221.179H254.55
			c-122.155,0-221.179-99.024-221.179-221.179V254.739c0-122.155,99.024-221.179,221.179-221.179h491.456
			c122.155,0,221.179,99.024,221.179,221.179V746.261z"/>
		<path fill="#231F20" d="M746,998.248H254.557c-138.97,0-252.08-113.004-252.08-251.974V254.726
			c0-138.97,113.109-252.08,252.08-252.08H746c138.97,0,252.08,113.109,252.08,252.08v491.548
			C998.079,885.245,884.97,998.248,746,998.248z M254.557,64.474c-104.919,0-190.259,85.34-190.259,190.259v491.548
			c0,104.919,85.34,190.259,190.259,190.259h491.443c104.919,0,190.364-85.34,190.364-190.259V254.733
			c0-104.919-85.445-190.259-190.364-190.259H254.557z"/>
	</g>
	<g>
		<circle fill="#00FC96" cx="500.282" cy="500.503" r="245.383"/>
		<path fill="#231F20" d="M500.308,781.925c-155.194,0-281.5-126.306-281.5-281.448c0-155.194,126.306-281.448,281.5-281.448
			c155.141,0,281.448,126.254,281.448,281.448C781.755,655.618,655.449,781.925,500.308,781.925z M500.308,291.173
			c-115.451,0-209.357,93.906-209.357,209.304c0,115.451,93.906,209.304,209.357,209.304s209.304-93.853,209.304-209.304
			C709.612,385.078,615.759,291.173,500.308,291.173z"/>
	</g>
	<circle fill="#231F20" cx="786.42" cy="215.891" r="58.341"/>
</g>
</svg>
