<?xml version="1.0" encoding="utf-8"?>
<!-- Generator: Adobe Illustrator 17.0.0, SVG Export Plug-In . SVG Version: 6.00 Build 0)  -->
<!DOCTYPE svg PUBLIC "-//W3C//DTD SVG 1.1//EN" "http://www.w3.org/Graphics/SVG/1.1/DTD/svg11.dtd">
<svg version="1.1" id="Layer_1" xmlns="http://www.w3.org/2000/svg" xmlns:xlink="http://www.w3.org/1999/xlink" x="0px" y="0px"
	 width="50px" height="50px" viewBox="0 0 50 50" enable-background="new 0 0 50 50" xml:space="preserve">
<g>
	<path fill="#FFFFFF" d="M36.07,20.22c0,8.24-6.7,14.94-14.94,14.94S6.19,28.46,6.19,20.22s6.7-14.94,14.94-14.94
		S36.07,11.98,36.07,20.22z"/>
</g>
<path fill="#231F20" d="M35.655,32.58c2.84-3.43,4.55-7.82,4.55-12.59c0-10.89-8.87-19.76-19.76-19.76S0.685,9.1,0.685,19.99
	c0,10.89,8.87,19.75,19.76,19.75c4.32,0,8.31-1.39,11.56-3.75l13.77,13.78l3.54-3.54L35.655,32.58z M20.445,5.05
	c8.24,0,14.94,6.7,14.94,14.94s-6.7,14.94-14.94,14.94s-14.94-6.7-14.94-14.94S12.205,5.05,20.445,5.05z"/>
</svg>
